<?xml version="1.0" encoding="UTF-8"?>
<!DOCTYPE svg PUBLIC "-//W3C//DTD SVG 1.1//EN" "http://www.w3.org/Graphics/SVG/1.1/DTD/svg11.dtd">
<svg xmlns="http://www.w3.org/2000/svg" version="1.1" width="96px" height="96px" style="shape-rendering:geometricPrecision; text-rendering:geometricPrecision; image-rendering:optimizeQuality; fill-rule:evenodd; clip-rule:evenodd" xmlns:xlink="http://www.w3.org/1999/xlink">
<g><path style="opacity:1" fill="#1b2570" d="M 25.5,-0.5 C 28.8333,-0.5 32.1667,-0.5 35.5,-0.5C 35.8333,0.166667 36.1667,0.833333 36.5,1.5C 37.1667,2.83333 38.1667,3.83333 39.5,4.5C 40.404,5.20895 40.7373,6.20895 40.5,7.5C 40.5,11.5 40.5,15.5 40.5,19.5C 41.5,19.5 42.5,19.5 43.5,19.5C 43.9731,20.9063 44.9731,21.573 46.5,21.5C 47.1667,21.5 47.8333,21.5 48.5,21.5C 50.0269,21.573 51.0269,20.9063 51.5,19.5C 53.2774,18.3995 55.2774,17.5662 57.5,17C 66.5,16.3333 75.5,16.3333 84.5,17C 85.4231,19.0408 85.7564,21.2075 85.5,23.5C 88.9387,23.2529 92.272,23.5863 95.5,24.5C 95.5,45.8333 95.5,67.1667 95.5,88.5C 83.5452,89.2932 71.5452,89.7932 59.5,90C 55.7996,90.8428 52.7996,92.6761 50.5,95.5C 48.5,95.5 46.5,95.5 44.5,95.5C 42.2004,92.6761 39.2004,90.8428 35.5,90C 23.4548,89.7932 11.4548,89.2932 -0.5,88.5C -0.5,67.1667 -0.5,45.8333 -0.5,24.5C 2.72797,23.5863 6.06131,23.2529 9.5,23.5C 8.07898,17.8868 10.079,15.7201 15.5,17C 16.1258,17.7504 16.6258,18.5838 17,19.5C 17.4999,36.8301 17.6666,54.1635 17.5,71.5C 24.5079,71.3337 31.5079,71.5004 38.5,72C 41.7789,72.9728 44.7789,74.4728 47.5,76.5C 50.2211,74.4728 53.2211,72.9728 56.5,72C 63.4921,71.5004 70.4921,71.3337 77.5,71.5C 77.5,55.5 77.5,39.5 77.5,23.5C 68.2611,22.5935 59.5944,24.2602 51.5,28.5C 48.8333,29.8333 46.1667,29.8333 43.5,28.5C 42.8333,28.5 42.5,28.1667 42.5,27.5C 42.44,26.9569 42.1067,26.6236 41.5,26.5C 40.5016,36.1437 40.1682,45.8104 40.5,55.5C 40.6716,56.4916 40.3382,57.1583 39.5,57.5C 38.0937,57.9731 37.427,58.9731 37.5,60.5C 36.0937,60.9731 35.427,61.9731 35.5,63.5C 34.0937,63.9731 33.427,64.9731 33.5,66.5C 32.3409,68.3769 30.6742,68.8769 28.5,68C 25.3007,64.4338 22.4674,60.6004 20,56.5C 19.3333,39.8333 19.3333,23.1667 20,6.5C 20.9668,3.37935 22.8001,1.04602 25.5,-0.5 Z M 29.5,6.5 C 31.2303,7.02561 32.5637,8.02561 33.5,9.5C 31.2646,9.79472 29.2646,9.46138 27.5,8.5C 28.5,8.16667 29.1667,7.5 29.5,6.5 Z M 28.5,17.5 C 30.1439,17.2865 31.6439,17.6198 33,18.5C 33.4998,28.1609 33.6665,37.8276 33.5,47.5C 31.8333,47.5 30.1667,47.5 28.5,47.5C 27.1829,37.5982 27.1829,27.5982 28.5,17.5 Z M 42.5,82.5 C 42.5,82.8333 42.5,83.1667 42.5,83.5C 30.6155,81.6361 18.6155,80.9694 6.5,81.5C 6.5,64.5 6.5,47.5 6.5,30.5C 7.5,30.5 8.5,30.5 9.5,30.5C 9.33341,46.1702 9.50008,61.8369 10,77.5C 17.4205,78.3158 24.9205,78.8158 32.5,79C 36.0391,79.6792 39.3724,80.8458 42.5,82.5 Z M 52.5,83.5 C 52.5,83.1667 52.5,82.8333 52.5,82.5C 55.6276,80.8458 58.9609,79.6792 62.5,79C 70.0795,78.8158 77.5795,78.3158 85,77.5C 85.4999,61.8369 85.6666,46.1702 85.5,30.5C 86.5,30.5 87.5,30.5 88.5,30.5C 88.5,47.5 88.5,64.5 88.5,81.5C 76.3845,80.9694 64.3845,81.6361 52.5,83.5 Z"/></g>
<g><path style="opacity:0.408" fill="#2f40ff" d="M 36.5,1.5 C 38.5,1.5 39.5,2.5 39.5,4.5C 38.1667,3.83333 37.1667,2.83333 36.5,1.5 Z"/></g>
<g><path style="opacity:0.192" fill="#3948ff" d="M 29.5,6.5 C 29.1667,7.5 28.5,8.16667 27.5,8.5C 27.5,7.16667 28.1667,6.5 29.5,6.5 Z"/></g>
<g><path style="opacity:0.568" fill="#3646ff" d="M 27.5,8.5 C 29.2646,9.46138 31.2646,9.79472 33.5,9.5C 33.4628,10.3018 32.4628,10.6351 30.5,10.5C 29.1667,10.1667 27.8333,9.83333 26.5,9.5C 26.6236,8.89333 26.9569,8.55999 27.5,8.5 Z"/></g>
<g><path style="opacity:0.221" fill="#3542ff" d="M 40.5,7.5 C 40.9771,11.6205 41.9771,15.6205 43.5,19.5C 42.5,19.5 41.5,19.5 40.5,19.5C 40.5,15.5 40.5,11.5 40.5,7.5 Z"/></g>
<g><path style="opacity:0.454" fill="#3749ff" d="M 28.5,17.5 C 27.1829,27.5982 27.1829,37.5982 28.5,47.5C 28.44,48.0431 28.1067,48.3764 27.5,48.5C 27.1667,43.3333 26.8333,38.1667 26.5,33C 26.5054,27.4543 27.1721,22.2876 28.5,17.5 Z"/></g>
<g><path style="opacity:0.137" fill="#323dff" d="M 43.5,19.5 C 45.0269,19.427 46.0269,20.0937 46.5,21.5C 44.9731,21.573 43.9731,20.9063 43.5,19.5 Z"/></g>
<g><path style="opacity:0.482" fill="#313dff" d="M 51.5,19.5 C 51.0269,20.9063 50.0269,21.573 48.5,21.5C 48.9731,20.0937 49.9731,19.427 51.5,19.5 Z"/></g>
<g><path style="opacity:0.137" fill="#3948ff" d="M 42.5,27.5 C 41.8333,36.8333 41.1667,46.1667 40.5,55.5C 40.1682,45.8104 40.5016,36.1437 41.5,26.5C 42.1067,26.6236 42.44,26.9569 42.5,27.5 Z"/></g>
<g><path style="opacity:0.568" fill="#3b48ff" d="M 43.5,28.5 C 46.1667,29.8333 48.8333,29.8333 51.5,28.5C 50.6879,29.9931 49.3545,30.6598 47.5,30.5C 45.6455,30.6598 44.3121,29.9931 43.5,28.5 Z"/></g>
<g><path style="opacity:1" fill="#1e297d" d="M 69.5,30.5 C 69.8333,31.5 70.5,32.1667 71.5,32.5C 72.3696,34.0319 72.0362,35.5319 70.5,37C 64.7341,36.9777 59.4008,38.4777 54.5,41.5C 53.2613,41.0576 52.2613,40.3909 51.5,39.5C 51.2525,37.1417 51.9192,35.1417 53.5,33.5C 55.958,31.2872 58.958,30.1205 62.5,30C 65.0385,29.2042 67.3718,29.3709 69.5,30.5 Z"/></g>
<g><path style="opacity:0.016" fill="#3b43ff" d="M 69.5,30.5 C 70.8333,30.5 71.5,31.1667 71.5,32.5C 70.5,32.1667 69.8333,31.5 69.5,30.5 Z"/></g>
<g><path style="opacity:0.431" fill="#354aff" d="M 53.5,33.5 C 51.9192,35.1417 51.2525,37.1417 51.5,39.5C 50.3871,38.0536 50.2204,36.3869 51,34.5C 51.6708,33.7476 52.5041,33.4142 53.5,33.5 Z"/></g>
<g><path style="opacity:1" fill="#1d2878" d="M 71.5,48.5 C 68.272,49.9807 64.9386,50.9807 61.5,51.5C 60.0697,52.5375 58.403,53.2041 56.5,53.5C 52.5,54.1667 50.8333,52.5 51.5,48.5C 55.3905,45.0159 60.0572,43.3493 65.5,43.5C 70.2849,42.6382 72.2849,44.3049 71.5,48.5 Z"/></g>
<g><path style="opacity:0.456" fill="#3947ff" d="M 71.5,48.5 C 71.5858,49.4959 71.2524,50.3292 70.5,51C 67.5184,51.498 64.5184,51.6646 61.5,51.5C 64.9386,50.9807 68.272,49.9807 71.5,48.5 Z"/></g>
<g><path style="opacity:0.596" fill="#3847ff" d="M 51.5,48.5 C 50.8333,52.5 52.5,54.1667 56.5,53.5C 51.1667,55.5 49.5,53.8333 51.5,48.5 Z"/></g>
<g><path style="opacity:0.227" fill="#323fff" d="M 31.5,56.5 C 30.8333,55.1667 30.1667,55.1667 29.5,56.5C 28.2486,55.528 28.582,54.8614 30.5,54.5C 32.418,54.8614 32.7514,55.528 31.5,56.5 Z"/></g>
<g><path style="opacity:0.184" fill="#374aff" d="M 29.5,56.5 C 30.1667,56.5 30.8333,56.5 31.5,56.5C 30.4523,58.9327 29.7856,58.9327 29.5,56.5 Z"/></g>
<g><path style="opacity:1" fill="#1f2980" d="M 71.5,62.5 C 70.5,62.8333 69.8333,63.5 69.5,64.5C 66.7131,65.4767 63.7131,65.81 60.5,65.5C 58.6203,65.2291 57.287,65.8958 56.5,67.5C 53.361,69.1943 51.361,68.1943 50.5,64.5C 51.269,61.8956 52.9357,60.0623 55.5,59C 60.4285,57.5822 65.4285,57.2489 70.5,58C 72.0362,59.4681 72.3696,60.9681 71.5,62.5 Z"/></g>
<g><path style="opacity:0.118" fill="#2f3bff" d="M 39.5,57.5 C 39.573,59.0269 38.9063,60.0269 37.5,60.5C 37.427,58.9731 38.0937,57.9731 39.5,57.5 Z"/></g>
<g><path style="opacity:0.118" fill="#2f3bff" d="M 37.5,60.5 C 37.573,62.0269 36.9063,63.0269 35.5,63.5C 35.427,61.9731 36.0937,60.9731 37.5,60.5 Z"/></g>
<g><path style="opacity:0.016" fill="#3b43ff" d="M 71.5,62.5 C 71.5,63.8333 70.8333,64.5 69.5,64.5C 69.8333,63.5 70.5,62.8333 71.5,62.5 Z"/></g>
<g><path style="opacity:0.118" fill="#2f3bff" d="M 35.5,63.5 C 35.573,65.0269 34.9063,66.0269 33.5,66.5C 33.427,64.9731 34.0937,63.9731 35.5,63.5 Z"/></g>
<g><path style="opacity:0.004" fill="#2a31ff" d="M 60.5,65.5 C 59.4863,66.6737 58.153,67.3404 56.5,67.5C 57.287,65.8958 58.6203,65.2291 60.5,65.5 Z"/></g>
<g><path style="opacity:0.027" fill="#3d47ff" d="M 52.5,82.5 C 52.5,82.8333 52.5,83.1667 52.5,83.5C 51.1667,83.8333 51.1667,84.1667 52.5,84.5C 52.1583,85.3382 51.4916,85.6716 50.5,85.5C 50.5,84.8333 50.1667,84.5 49.5,84.5C 49.9731,83.0937 50.9731,82.427 52.5,82.5 Z"/></g>
<g><path style="opacity:0.471" fill="#3a46ff" d="M 42.5,83.5 C 42.5,83.1667 42.5,82.8333 42.5,82.5C 44.0269,82.427 45.0269,83.0937 45.5,84.5C 44.8333,84.5 44.5,84.8333 44.5,85.5C 43.5084,85.6716 42.8417,85.3382 42.5,84.5C 43.8333,84.1667 43.8333,83.8333 42.5,83.5 Z"/></g>
<g><path style="opacity:0.429" fill="#3746ff" d="M 45.5,84.5 C 46.8333,84.5 48.1667,84.5 49.5,84.5C 50.1667,84.5 50.5,84.8333 50.5,85.5C 50.1583,86.3382 49.4916,86.6716 48.5,86.5C 47.8333,85.1667 47.1667,85.1667 46.5,86.5C 45.5084,86.6716 44.8417,86.3382 44.5,85.5C 45.1667,85.5 45.5,85.1667 45.5,84.5 Z"/></g>
</svg>
