<?xml version="1.0" encoding="UTF-8"?>
<!DOCTYPE svg PUBLIC "-//W3C//DTD SVG 1.1//EN" "http://www.w3.org/Graphics/SVG/1.1/DTD/svg11.dtd">
<svg xmlns="http://www.w3.org/2000/svg" version="1.1" width="117px" height="99px" style="shape-rendering:geometricPrecision; text-rendering:geometricPrecision; image-rendering:optimizeQuality; fill-rule:evenodd; clip-rule:evenodd" xmlns:xlink="http://www.w3.org/1999/xlink">
<g><path style="opacity:1" fill="#1b256d" d="M 52.5,-0.5 C 56.1667,-0.5 59.8333,-0.5 63.5,-0.5C 64.5,0.166667 65.5,0.833333 66.5,1.5C 66.9731,2.90632 67.9731,3.57298 69.5,3.5C 75.3269,8.47805 77.4935,14.8114 76,22.5C 75.6264,24.4913 74.793,26.158 73.5,27.5C 71.5,28.8333 69.8333,30.5 68.5,32.5C 72.4156,35.2895 76.749,37.2895 81.5,38.5C 83.3084,38.5086 84.9751,38.0086 86.5,37C 87.7736,36.0228 87.7736,35.1894 86.5,34.5C 84.8267,33.657 83.66,32.3237 83,30.5C 81.4674,13.0315 88.9674,7.19817 105.5,13C 110.202,17.9218 111.702,23.7552 110,30.5C 109.34,32.3237 108.173,33.657 106.5,34.5C 105.243,35.6226 105.576,36.2893 107.5,36.5C 109.819,36.9925 111.819,37.9925 113.5,39.5C 114.167,40.8333 115.167,41.8333 116.5,42.5C 116.5,56.5 116.5,70.5 116.5,84.5C 105.581,85.4766 94.5813,85.8099 83.5,85.5C 83.7693,89.9315 83.436,94.2648 82.5,98.5C 66.1667,98.5 49.8333,98.5 33.5,98.5C 32.564,94.2648 32.2307,89.9315 32.5,85.5C 21.4187,85.8099 10.4187,85.4766 -0.5,84.5C -0.5,70.5 -0.5,56.5 -0.5,42.5C 0.833333,41.8333 1.83333,40.8333 2.5,39.5C 4.18147,37.9925 6.18147,36.9925 8.5,36.5C 10.4241,36.2893 10.7574,35.6226 9.5,34.5C 6.14844,32.2861 4.81511,29.1194 5.5,25C 6.4932,13.3202 12.8265,8.65351 24.5,11C 26.5844,11.6972 28.2511,12.8639 29.5,14.5C 29.427,16.0269 30.0937,17.0269 31.5,17.5C 32.2216,17.9175 32.7216,18.5842 33,19.5C 33.6667,23.1667 33.6667,26.8333 33,30.5C 32.34,32.3237 31.1733,33.657 29.5,34.5C 28.2426,35.6226 28.5759,36.2893 30.5,36.5C 32.3664,37.0138 34.1997,37.6805 36,38.5C 40.1153,36.8606 43.9487,34.8606 47.5,32.5C 46.1667,30.5 44.5,28.8333 42.5,27.5C 38.4639,20.5532 38.6305,13.5532 43,6.5C 44.0391,5.2899 45.2058,4.2899 46.5,3.5C 48.0269,3.57298 49.0269,2.90632 49.5,1.5C 50.5,0.833333 51.5,0.166667 52.5,-0.5 Z M 53.5,7.5 C 56.5,7.5 59.5,7.5 62.5,7.5C 62.9731,8.90632 63.9731,9.57298 65.5,9.5C 68.9539,14.3278 69.2872,19.3278 66.5,24.5C 65.5,24.8333 64.8333,25.5 64.5,26.5C 60.1667,29.1667 55.8333,29.1667 51.5,26.5C 51.1667,25.5 50.5,24.8333 49.5,24.5C 46.7128,19.3278 47.0461,14.3278 50.5,9.5C 52.0269,9.57298 53.0269,8.90632 53.5,7.5 Z M 22.5,18.5 C 23.1667,19.8333 24.1667,20.8333 25.5,21.5C 25.5987,24.2372 25.2653,26.9039 24.5,29.5C 18.4789,32.8252 14.4789,31.1585 12.5,24.5C 13.9499,19.4392 17.2833,17.4392 22.5,18.5 Z M 93.5,18.5 C 95.5,18.5 97.5,18.5 99.5,18.5C 100.167,19.8333 101.167,20.8333 102.5,21.5C 103.972,26.553 102.138,29.8864 97,31.5C 91.1226,30.678 88.956,27.3447 90.5,21.5C 91.8333,20.8333 92.8333,19.8333 93.5,18.5 Z M 27.5,43.5 C 28.9649,44.7368 30.6316,45.7368 32.5,46.5C 32.5,57.1667 32.5,67.8333 32.5,78.5C 23.8333,78.5 15.1667,78.5 6.5,78.5C 6.5,67.5 6.5,56.5 6.5,45.5C 7.79105,45.7373 8.79105,45.404 9.5,44.5C 11.0269,44.573 12.0269,43.9063 12.5,42.5C 14.8398,41.914 17.0065,40.914 19,39.5C 21.6587,41.2465 24.492,42.5798 27.5,43.5 Z M 96.5,39.5 C 100.473,41.4867 104.473,43.4867 108.5,45.5C 109.499,56.4798 109.832,67.4798 109.5,78.5C 100.833,78.5 92.1667,78.5 83.5,78.5C 83.3335,67.8281 83.5002,57.1615 84,46.5C 88.3098,44.2658 92.4765,41.9324 96.5,39.5 Z M 52.5,42.5 C 49.9545,53.0588 48.1212,63.7255 47,74.5C 50.3675,78.2026 54.0342,81.536 58,84.5C 62.7188,81.2826 66.5522,77.2826 69.5,72.5C 67.62,62.4331 65.62,52.4331 63.5,42.5C 63.3691,41.6236 63.7025,40.9569 64.5,40.5C 66.9793,42.0761 69.646,43.0761 72.5,43.5C 72.8417,44.3382 73.5084,44.6716 74.5,44.5C 74.8333,45.5 75.5,46.1667 76.5,46.5C 76.5,61.1667 76.5,75.8333 76.5,90.5C 64.1667,90.5 51.8333,90.5 39.5,90.5C 39.3334,75.8295 39.5001,61.1629 40,46.5C 40.9947,45.9341 41.828,45.2674 42.5,44.5C 45.5963,43.4533 48.5963,42.12 51.5,40.5C 52.2975,40.9569 52.6309,41.6236 52.5,42.5 Z M 57.5,54.5 C 58.7951,59.1372 59.7951,63.9705 60.5,69C 58.8333,76.3333 57.1667,76.3333 55.5,69C 56.4932,64.2034 57.1598,59.37 57.5,54.5 Z"/></g>
<g><path style="opacity:0.765" fill="#3745ff" d="M 49.5,1.5 C 49.0269,2.90632 48.0269,3.57298 46.5,3.5C 46.9731,2.09368 47.9731,1.42702 49.5,1.5 Z"/></g>
<g><path style="opacity:0.471" fill="#3845ff" d="M 66.5,1.5 C 68.0269,1.42702 69.0269,2.09368 69.5,3.5C 67.9731,3.57298 66.9731,2.90632 66.5,1.5 Z"/></g>
<g><path style="opacity:0.498" fill="#323dff" d="M 62.5,7.5 C 64.0269,7.42702 65.0269,8.09368 65.5,9.5C 63.9731,9.57298 62.9731,8.90632 62.5,7.5 Z"/></g>
<g><path style="opacity:0.008" fill="#2d62ff" d="M 53.5,7.5 C 53.0269,8.90632 52.0269,9.57298 50.5,9.5C 50.9731,8.09368 51.9731,7.42702 53.5,7.5 Z"/></g>
<g><path style="opacity:0.453" fill="#374aff" d="M 29.5,14.5 C 30.9063,14.9731 31.573,15.9731 31.5,17.5C 30.0937,17.0269 29.427,16.0269 29.5,14.5 Z"/></g>
<g><path style="opacity:0.718" fill="#3c48ff" d="M 22.5,18.5 C 24.5,18.5 25.5,19.5 25.5,21.5C 24.1667,20.8333 23.1667,19.8333 22.5,18.5 Z"/></g>
<g><path style="opacity:0.375" fill="#394aff" d="M 93.5,18.5 C 92.8333,19.8333 91.8333,20.8333 90.5,21.5C 90.5,19.5 91.5,18.5 93.5,18.5 Z"/></g>
<g><path style="opacity:0.616" fill="#363fff" d="M 99.5,18.5 C 101.5,18.5 102.5,19.5 102.5,21.5C 101.167,20.8333 100.167,19.8333 99.5,18.5 Z"/></g>
<g><path style="opacity:0.102" fill="#353eff" d="M 25.5,21.5 C 26.1524,22.4486 26.4857,23.6153 26.5,25C 26.6932,27.0081 26.0265,28.5081 24.5,29.5C 25.2653,26.9039 25.5987,24.2372 25.5,21.5 Z"/></g>
<g><path style="opacity:0.773" fill="#3847ff" d="M 49.5,24.5 C 50.5,24.8333 51.1667,25.5 51.5,26.5C 50.1667,26.5 49.5,25.8333 49.5,24.5 Z"/></g>
<g><path style="opacity:0.749" fill="#3649ff" d="M 66.5,24.5 C 66.5,25.8333 65.8333,26.5 64.5,26.5C 64.8333,25.5 65.5,24.8333 66.5,24.5 Z"/></g>
<g><path style="opacity:0.604" fill="#354cff" d="M 42.5,27.5 C 44.5,28.8333 46.1667,30.5 47.5,32.5C 44.8333,31.8333 43.1667,30.1667 42.5,27.5 Z"/></g>
<g><path style="opacity:0.039" fill="#354dff" d="M 73.5,27.5 C 72.8333,30.1667 71.1667,31.8333 68.5,32.5C 69.8333,30.5 71.5,28.8333 73.5,27.5 Z"/></g>
<g><path style="opacity:0.394" fill="#3a45ff" d="M 9.5,34.5 C 10.7574,35.6226 10.4241,36.2893 8.5,36.5C 8.83333,35.8333 9.16667,35.1667 9.5,34.5 Z"/></g>
<g><path style="opacity:0.331" fill="#303bff" d="M 29.5,34.5 C 29.8333,35.1667 30.1667,35.8333 30.5,36.5C 28.5759,36.2893 28.2426,35.6226 29.5,34.5 Z"/></g>
<g><path style="opacity:0.392" fill="#3945ff" d="M 106.5,34.5 C 106.833,35.1667 107.167,35.8333 107.5,36.5C 105.576,36.2893 105.243,35.6226 106.5,34.5 Z"/></g>
<g><path style="opacity:0.553" fill="#3142ff" d="M 86.5,34.5 C 87.7736,35.1894 87.7736,36.0228 86.5,37C 84.9751,38.0086 83.3084,38.5086 81.5,38.5C 83.3492,37.407 85.0158,36.0737 86.5,34.5 Z"/></g>
<g><path style="opacity:0.559" fill="#303bff" d="M 52.5,42.5 C 52.6309,41.6236 52.2975,40.9569 51.5,40.5C 48.5963,42.12 45.5963,43.4533 42.5,44.5C 45.4379,42.023 48.7712,40.023 52.5,38.5C 53.782,39.9584 53.782,41.2918 52.5,42.5 Z"/></g>
<g><path style="opacity:0.067" fill="#3a47ff" d="M 113.5,39.5 C 114.609,39.5569 115.609,39.8902 116.5,40.5C 116.5,41.1667 116.5,41.8333 116.5,42.5C 115.167,41.8333 114.167,40.8333 113.5,39.5 Z"/></g>
<g><path style="opacity:0.624" fill="#3846ff" d="M 2.5,39.5 C 1.83333,40.8333 0.833333,41.8333 -0.5,42.5C -0.5,41.8333 -0.5,41.1667 -0.5,40.5C 0.391047,39.8902 1.39105,39.5569 2.5,39.5 Z"/></g>
<g><path style="opacity:0.559" fill="#303cff" d="M 72.5,43.5 C 69.646,43.0761 66.9793,42.0761 64.5,40.5C 63.7025,40.9569 63.3691,41.6236 63.5,42.5C 62.218,41.2918 62.218,39.9584 63.5,38.5C 66.7235,39.9409 69.7235,41.6076 72.5,43.5 Z"/></g>
<g><path style="opacity:0.004" fill="#2931ff" d="M 12.5,42.5 C 12.0269,43.9063 11.0269,44.573 9.5,44.5C 9.97306,43.0937 10.9731,42.427 12.5,42.5 Z"/></g>
<g><path style="opacity:0.555" fill="#2e3fff" d="M 27.5,43.5 C 30.0336,43.2591 31.7002,44.2591 32.5,46.5C 30.6316,45.7368 28.9649,44.7368 27.5,43.5 Z"/></g>
<g><path style="opacity:0.531" fill="#303bff" d="M 74.5,44.5 C 75.8333,44.5 76.5,45.1667 76.5,46.5C 75.5,46.1667 74.8333,45.5 74.5,44.5 Z"/></g>
</svg>
