<?xml version="1.0" encoding="UTF-8"?>
<!DOCTYPE svg PUBLIC "-//W3C//DTD SVG 1.1//EN" "http://www.w3.org/Graphics/SVG/1.1/DTD/svg11.dtd">
<svg xmlns="http://www.w3.org/2000/svg" version="1.1" width="80px" height="80px" style="shape-rendering:geometricPrecision; text-rendering:geometricPrecision; image-rendering:optimizeQuality; fill-rule:evenodd; clip-rule:evenodd" xmlns:xlink="http://www.w3.org/1999/xlink">
<g><path style="opacity:1" fill="#1c2774" d="M 4.5,-0.5 C 7.83333,-0.5 11.1667,-0.5 14.5,-0.5C 19.8851,4.29208 20.8851,9.95875 17.5,16.5C 13.6847,19.4244 9.35139,20.2577 4.5,19C 2.63834,17.6343 0.971672,16.1343 -0.5,14.5C -0.5,11.1667 -0.5,7.83333 -0.5,4.5C 0.166667,4.16667 0.833333,3.83333 1.5,3.5C 2.5,3.16667 3.16667,2.5 3.5,1.5C 3.83333,0.833333 4.16667,0.166667 4.5,-0.5 Z M 8.5,6.5 C 9.16667,6.5 9.83333,6.5 10.5,6.5C 10.8333,7.5 11.5,8.16667 12.5,8.5C 12.5,9.16667 12.5,9.83333 12.5,10.5C 11.5,10.8333 10.8333,11.5 10.5,12.5C 9.83333,12.5 9.16667,12.5 8.5,12.5C 8.16667,11.5 7.5,10.8333 6.5,10.5C 6.5,9.83333 6.5,9.16667 6.5,8.5C 7.5,8.16667 8.16667,7.5 8.5,6.5 Z"/></g>
<g><path style="opacity:0.624" fill="#3648ff" d="M 25.5,-0.5 C 25.8333,-0.5 26.1667,-0.5 26.5,-0.5C 26.5,1.5 26.5,3.5 26.5,5.5C 42.0091,5.17047 57.3424,5.5038 72.5,6.5C 56.8333,6.5 41.1667,6.5 25.5,6.5C 25.5,4.16667 25.5,1.83333 25.5,-0.5 Z"/></g>
<g><path style="opacity:1" fill="#17205d" d="M 26.5,-0.5 C 44.1667,-0.5 61.8333,-0.5 79.5,-0.5C 79.5,13.8333 79.5,28.1667 79.5,42.5C 61.8333,42.5 44.1667,42.5 26.5,42.5C 26.5,40.5 26.5,38.5 26.5,36.5C 42.1667,36.5 57.8333,36.5 73.5,36.5C 73.8274,26.3194 73.494,16.3194 72.5,6.5C 57.3424,5.5038 42.0091,5.17047 26.5,5.5C 26.5,3.5 26.5,1.5 26.5,-0.5 Z"/></g>
<g><path style="opacity:0.549" fill="#3f4aff" d="M 3.5,1.5 C 3.16667,2.5 2.5,3.16667 1.5,3.5C 1.5,2.16667 2.16667,1.5 3.5,1.5 Z"/></g>
<g><path style="opacity:0.336" fill="#3546ff" d="M 8.5,6.5 C 8.16667,7.5 7.5,8.16667 6.5,8.5C 6.5,7.16667 7.16667,6.5 8.5,6.5 Z"/></g>
<g><path style="opacity:0.788" fill="#3848ff" d="M 10.5,6.5 C 11.8333,6.5 12.5,7.16667 12.5,8.5C 11.5,8.16667 10.8333,7.5 10.5,6.5 Z"/></g>
<g><path style="opacity:0.405" fill="#3648ff" d="M 72.5,6.5 C 73.494,16.3194 73.8274,26.3194 73.5,36.5C 57.8333,36.5 42.1667,36.5 26.5,36.5C 26.5,38.5 26.5,40.5 26.5,42.5C 44.1667,42.5 61.8333,42.5 79.5,42.5C 79.5,42.8333 79.5,43.1667 79.5,43.5C 61.5,43.5 43.5,43.5 25.5,43.5C 25.5,40.8333 25.5,38.1667 25.5,35.5C 41.1667,35.5 56.8333,35.5 72.5,35.5C 72.5,25.8333 72.5,16.1667 72.5,6.5 Z"/></g>
<g><path style="opacity:0.348" fill="#3847ff" d="M 12.5,10.5 C 12.5,11.8333 11.8333,12.5 10.5,12.5C 10.8333,11.5 11.5,10.8333 12.5,10.5 Z"/></g>
<g><path style="opacity:0.788" fill="#3848ff" d="M 6.5,10.5 C 7.5,10.8333 8.16667,11.5 8.5,12.5C 7.16667,12.5 6.5,11.8333 6.5,10.5 Z"/></g>
<g><path style="opacity:1" fill="#1a256c" d="M 40.5,25.5 C 38.9731,25.427 37.9731,26.0937 37.5,27.5C 32.2143,31.2621 26.2143,33.2621 19.5,33.5C 19.5,48.8333 19.5,64.1667 19.5,79.5C 17.1667,79.5 14.8333,79.5 12.5,79.5C 12.5,72.8333 12.5,66.1667 12.5,59.5C 10.5,59.5 8.5,59.5 6.5,59.5C 6.5,66.1667 6.5,72.8333 6.5,79.5C 4.16667,79.5 1.83333,79.5 -0.5,79.5C -0.5,61.5 -0.5,43.5 -0.5,25.5C 7.83999,25.6664 16.1733,25.4997 24.5,25C 29.8124,23.9279 34.3124,21.4279 38,17.5C 39.8333,19.3333 41.6667,21.1667 43.5,23C 42.6266,24.045 41.6266,24.8783 40.5,25.5 Z M 12.5,52.5 C 10.5,52.5 8.5,52.5 6.5,52.5C 6.5,46.1667 6.5,39.8333 6.5,33.5C 8.5,33.5 10.5,33.5 12.5,33.5C 12.5,39.8333 12.5,46.1667 12.5,52.5 Z"/></g>
<g><path style="opacity:0.004" fill="#2830ff" d="M 40.5,25.5 C 40.0269,26.9063 39.0269,27.573 37.5,27.5C 37.9731,26.0937 38.9731,25.427 40.5,25.5 Z"/></g>
<g><path style="opacity:0.628" fill="#3747ff" d="M 12.5,52.5 C 12.5,46.1667 12.5,39.8333 12.5,33.5C 10.5,33.5 8.5,33.5 6.5,33.5C 6.5,39.8333 6.5,46.1667 6.5,52.5C 5.50929,46.021 5.17596,39.3543 5.5,32.5C 8.16667,32.5 10.8333,32.5 13.5,32.5C 13.824,39.3543 13.4907,46.021 12.5,52.5 Z M 12.5,52.5 C 10.5,52.5 8.5,52.5 6.5,52.5C 6.5,46.1667 6.5,39.8333 6.5,33.5C 8.5,33.5 10.5,33.5 12.5,33.5C 12.5,39.8333 12.5,46.1667 12.5,52.5 Z"/></g>
<g><path style="opacity:1" fill="#1d2776" d="M 48.5,62.5 C 47.0937,62.9731 46.427,63.9731 46.5,65.5C 41.8333,69.5 37.1667,69.5 32.5,65.5C 32.573,63.9731 31.9063,62.9731 30.5,62.5C 27.8531,51.6398 32.1864,46.8064 43.5,48C 49.2662,51.4835 50.9329,56.3168 48.5,62.5 Z M 42.5,58.5 C 41.5178,59.1408 40.5178,59.8075 39.5,60.5C 38.4822,59.8075 37.4822,59.1408 36.5,58.5C 37.0717,55.7564 38.7383,54.9231 41.5,56C 42.2524,56.6708 42.5858,57.5041 42.5,58.5 Z"/></g>
<g><path style="opacity:1" fill="#1d2776" d="M 79.5,53.5 C 79.5,56.5 79.5,59.5 79.5,62.5C 79.1667,62.5 78.8333,62.5 78.5,62.5C 77.0937,62.9731 76.427,63.9731 76.5,65.5C 71.8333,69.5 67.1667,69.5 62.5,65.5C 62.573,63.9731 61.9063,62.9731 60.5,62.5C 57.8531,51.6398 62.1864,46.8064 73.5,48C 76.0226,49.3597 78.0226,51.193 79.5,53.5 Z M 72.5,58.5 C 71.5178,59.1408 70.5178,59.8075 69.5,60.5C 68.4822,59.8075 67.4822,59.1408 66.5,58.5C 67.0717,55.7564 68.7383,54.9231 71.5,56C 72.2524,56.6708 72.5858,57.5041 72.5,58.5 Z"/></g>
<g><path style="opacity:0.594" fill="#323fff" d="M 36.5,58.5 C 37.4822,59.1408 38.4822,59.8075 39.5,60.5C 40.5178,59.8075 41.5178,59.1408 42.5,58.5C 41.9283,61.2436 40.2617,62.0769 37.5,61C 36.7476,60.3292 36.4142,59.4959 36.5,58.5 Z"/></g>
<g><path style="opacity:0.594" fill="#323fff" d="M 66.5,58.5 C 67.4822,59.1408 68.4822,59.8075 69.5,60.5C 70.5178,59.8075 71.5178,59.1408 72.5,58.5C 71.9283,61.2436 70.2617,62.0769 67.5,61C 66.7476,60.3292 66.4142,59.4959 66.5,58.5 Z"/></g>
<g><path style="opacity:0.439" fill="#3845ff" d="M 30.5,62.5 C 31.9063,62.9731 32.573,63.9731 32.5,65.5C 31.0937,65.0269 30.427,64.0269 30.5,62.5 Z"/></g>
<g><path style="opacity:0.027" fill="#3f48ff" d="M 48.5,62.5 C 48.573,64.0269 47.9063,65.0269 46.5,65.5C 46.427,63.9731 47.0937,62.9731 48.5,62.5 Z"/></g>
<g><path style="opacity:0.439" fill="#3845ff" d="M 60.5,62.5 C 61.9063,62.9731 62.573,63.9731 62.5,65.5C 61.0937,65.0269 60.427,64.0269 60.5,62.5 Z"/></g>
<g><path style="opacity:0.027" fill="#3f48ff" d="M 78.5,62.5 C 78.573,64.0269 77.9063,65.0269 76.5,65.5C 76.427,63.9731 77.0937,62.9731 78.5,62.5 Z"/></g>
<g><path style="opacity:1" fill="#1c2774" d="M 53.5,79.5 C 44.1667,79.5 34.8333,79.5 25.5,79.5C 25.933,76.8045 27.2663,74.6379 29.5,73C 36.1667,72.3333 42.8333,72.3333 49.5,73C 51.7337,74.6379 53.067,76.8045 53.5,79.5 Z"/></g>
<g><path style="opacity:1" fill="#1c2672" d="M 79.5,72.5 C 79.5,74.8333 79.5,77.1667 79.5,79.5C 71.5,79.5 63.5,79.5 55.5,79.5C 55.933,76.8045 57.2663,74.6379 59.5,73C 66.1583,72.5004 72.825,72.3337 79.5,72.5 Z"/></g>
</svg>
