<svg id="SvgjsSvg1011" width="288" height="288" xmlns="http://www.w3.org/2000/svg" version="1.1" xmlns:xlink="http://www.w3.org/1999/xlink" xmlns:svgjs="http://svgjs.com/svgjs"><defs id="SvgjsDefs1012"></defs><g id="SvgjsG1013"><svg xmlns="http://www.w3.org/2000/svg" viewBox="0 0 80 80" width="288" height="288"><g transform="translate(-10 -10)" fill="#17215d" class="color000 svgShape"><path fill="#17215d" d="M50 58.333a10 10 0 1010 10A10 10 0 0050 58.333zm0 13.334a3.333 3.333 0 113.333-3.334A3.336 3.336 0 0150 71.667zM56.667 83.333H43.333A6.667 6.667 0 0036.666 90H63.333A6.664 6.664 0 0056.667 83.333zM80 58.333a10 10 0 1010 10A10 10 0 0080 58.333zm0 13.334a3.333 3.333 0 113.333-3.334A3.335 3.335 0 0180 71.667zM90 83.333H73.333A6.666 6.666 0 0066.667 90H90zM20 10A10 10 0 1030 20 10 10 0 0020 10zm0 13.333A3.333 3.333 0 1123.332 20 3.332 3.332 0 0120 23.333zM90 10H36.667v6.667H83.333v30H36.667v6.666H90z" class="color3747ff svgShape"></path><path fill="#17215d" d="M48.538,28.7A25.628,25.628,0,0,1,30,36.667H10V90h6.668V70h6.665V90H30V43.333a32.364,32.364,0,0,0,23.333-10ZM23.332,63.333H16.667v-20h6.665Z" class="color3747ff svgShape"></path></g></svg></g></svg>